<svg width="200" height="206" viewBox="0 0 200 206" fill="none" xmlns="http://www.w3.org/2000/svg">
<path fill-rule="evenodd" clip-rule="evenodd" d="M100 200C114.228 200 127.762 197.029 140.015 191.673C140.367 199.645 146.941 206 155 206C163.284 206 170 199.284 170 191C170 185.466 167.003 180.632 162.544 178.032C185.38 159.705 200 131.56 200 100C200 80.0034 194.131 61.3777 184.021 45.7516C190.744 32.4493 192.37 26.4075 191.158 6.74432C176.508 8.60571 169.274 11.9117 159.5 19.6197C142.873 7.2917 122.288 0 100 0C77.3141 0 56.3926 7.5542 39.6137 20.2843C29.4074 12.0998 22.1844 8.65836 7.12054 6.74432C5.86399 27.1342 7.65789 32.8772 15.0239 47.2573C5.50053 62.5684 0 80.6418 0 100C0 131.56 14.6198 159.705 37.4563 178.032C32.9969 180.632 30 185.466 30 191C30 199.284 36.7157 206 45 206C53.0589 206 59.6334 199.645 59.9852 191.673C72.2383 197.029 85.7722 200 100 200ZM60 100C65.5228 100 70 95.5229 70 90C70 84.4771 65.5228 80 60 80C54.4772 80 50 84.4771 50 90C50 95.5229 54.4772 100 60 100ZM150 90C150 95.5229 145.523 100 140 100C134.477 100 130 95.5229 130 90C130 84.4771 134.477 80 140 80C145.523 80 150 84.4771 150 90ZM100 180C119.33 180 135 164.33 135 145C135 125.67 119.33 110 100 110C80.67 110 65 125.67 65 145C65 164.33 80.67 180 100 180ZM64 44.5C64 42.0147 66.0147 40 68.5 40H130.5C132.985 40 135 42.0147 135 44.5C135 46.9853 132.985 49 130.5 49H68.5C66.0147 49 64 46.9853 64 44.5ZM95.4976 125.56V122.531C95.4976 120.873 96.8317 119.538 98.4904 119.538H100.492C102.15 119.538 103.484 120.873 103.484 122.531V125.596C106.279 125.74 108.983 126.696 111.237 128.373C112.246 129.112 112.355 130.59 111.453 131.456L108.514 134.25C107.829 134.917 106.802 134.935 105.99 134.43C105.017 133.817 103.935 133.511 102.781 133.511H95.768C94.1454 133.511 92.8293 134.989 92.8293 136.81C92.8293 138.288 93.7308 139.605 95.0108 139.983L106.243 143.355C110.876 144.743 114.121 149.196 114.121 154.19C114.121 160.32 109.362 165.278 103.466 165.44V168.469C103.466 170.127 102.132 171.462 100.474 171.462H98.4724C96.8137 171.462 95.4796 170.127 95.4796 168.469V165.404C92.6851 165.26 89.9808 164.304 87.7272 162.627C86.7175 161.888 86.6094 160.41 87.5108 159.544L90.4495 156.75C91.1346 156.083 92.1623 156.065 92.9736 156.57C93.9471 157.183 95.0288 157.489 96.1827 157.489H103.196C104.819 157.489 106.135 156.011 106.135 154.19C106.135 152.712 105.233 151.395 103.953 151.017L92.7212 147.645C88.0877 146.257 84.8425 141.804 84.8425 136.81C84.8606 130.68 89.6022 125.722 95.4976 125.56Z" fill="#1572E8"/>
</svg>
