<svg width="226" height="37" viewBox="0 0 226 37" fill="none" xmlns="http://www.w3.org/2000/svg">
<path fill-rule="evenodd" clip-rule="evenodd" d="M15.5 33.068C17.7053 33.068 19.8031 32.6064 21.7023 31.7744C21.7569 33.0128 22.7759 34 24.025 34C25.309 34 26.35 32.9567 26.35 31.6699C26.35 30.8103 25.8855 30.0593 25.1943 29.6555C28.7339 26.8085 31 22.4365 31 17.534C31 14.4277 30.0903 11.5344 28.5233 9.10704C29.5653 7.04067 29.8174 6.10214 29.6295 3.04766C27.3587 3.33681 26.2375 3.85036 24.7225 5.04772C22.1453 3.13269 18.9546 2 15.5 2C11.9837 2 8.74085 3.17347 6.14012 5.15096C4.55815 3.87958 3.43858 3.34499 1.10368 3.04766C0.908918 6.21502 1.18697 7.10714 2.3287 9.34094C0.852582 11.7194 0 14.5269 0 17.534C0 22.4365 2.26607 26.8085 5.80573 29.6555C5.11452 30.0593 4.65 30.8103 4.65 31.6699C4.65 32.9567 5.69093 34 6.975 34C8.22413 34 9.24318 33.0128 9.29771 31.7744C11.1969 32.6064 13.2947 33.068 15.5 33.068ZM9.3 17.534C10.156 17.534 10.85 16.8385 10.85 15.9806C10.85 15.1227 10.156 14.4272 9.3 14.4272C8.44397 14.4272 7.75 15.1227 7.75 15.9806C7.75 16.8385 8.44397 17.534 9.3 17.534ZM23.25 15.9806C23.25 16.8385 22.5561 17.534 21.7 17.534C20.8439 17.534 20.15 16.8385 20.15 15.9806C20.15 15.1227 20.8439 14.4272 21.7 14.4272C22.5561 14.4272 23.25 15.1227 23.25 15.9806ZM15.5 29.9612C18.4962 29.9612 20.925 27.527 20.925 24.5243C20.925 21.5216 18.4962 19.0874 15.5 19.0874C12.5039 19.0874 10.075 21.5216 10.075 24.5243C10.075 27.527 12.5039 29.9612 15.5 29.9612ZM9.92 8.91262C9.92 8.52656 10.2323 8.21359 10.6175 8.21359H20.2275C20.6127 8.21359 20.925 8.52656 20.925 8.91262C20.925 9.29869 20.6127 9.61165 20.2275 9.61165H10.6175C10.2323 9.61165 9.92 9.29869 9.92 8.91262ZM14.8021 21.5045V21.0339C14.8021 20.7764 15.0089 20.569 15.266 20.569H15.5763C15.8332 20.569 16.04 20.7764 16.04 21.0339V21.5101C16.4732 21.5324 16.8924 21.6809 17.2417 21.9414C17.3981 22.0562 17.415 22.2858 17.2752 22.4203L16.8197 22.8544C16.7135 22.958 16.5543 22.9608 16.4284 22.8823C16.2776 22.7871 16.1099 22.7396 15.9311 22.7396H14.844C14.5925 22.7396 14.3885 22.9692 14.3885 23.252C14.3885 23.4816 14.5283 23.6862 14.7267 23.7449L16.4677 24.2687C17.1858 24.4843 17.6888 25.1761 17.6888 25.9518C17.6888 26.9041 16.9511 27.6743 16.0372 27.6994V28.1699C16.0372 28.4275 15.8305 28.6349 15.5735 28.6349H15.2632C15.0061 28.6349 14.7993 28.4275 14.7993 28.1699V27.6938C14.3662 27.6715 13.947 27.523 13.5977 27.2624C13.4412 27.1477 13.4245 26.9181 13.5642 26.7835L14.0197 26.3495C14.1259 26.2459 14.2852 26.2431 14.4109 26.3216C14.5618 26.4168 14.7295 26.4643 14.9083 26.4643H15.9954C16.2469 26.4643 16.4509 26.2347 16.4509 25.9518C16.4509 25.7223 16.3111 25.5177 16.1127 25.459L14.3718 24.9351C13.6536 24.7195 13.1506 24.0278 13.1506 23.252C13.1534 22.2998 13.8883 21.5296 14.8021 21.5045Z" fill="white"/>
<path d="M50.7568 7.67188L56.3232 25.0742L61.8896 7.67188H65.3467V29H62.666V20.6943L62.915 12.374L57.334 29H55.2832L49.7314 12.4326L49.9805 20.6943V29H47.2998V7.67188H50.7568ZM70.2674 20.3428C70.2674 18.0381 70.824 16.2168 71.9373 14.8789C73.0604 13.5312 74.5398 12.8574 76.3758 12.8574C78.2117 12.8574 79.6863 13.5117 80.7996 14.8203C81.9227 16.1289 82.4988 17.9111 82.5281 20.167V21.8369C82.5281 24.1318 81.9715 25.9482 80.8582 27.2861C79.7449 28.624 78.2605 29.293 76.4051 29.293C74.5691 29.293 73.0945 28.6436 71.9813 27.3447C70.8777 26.0459 70.3064 24.2881 70.2674 22.0713V20.3428ZM72.8602 21.8369C72.8602 23.4678 73.1775 24.752 73.8123 25.6895C74.4568 26.6172 75.3211 27.0811 76.4051 27.0811C78.6902 27.0811 79.867 25.4307 79.9354 22.1299V20.3428C79.9354 18.7217 79.6131 17.4424 78.9686 16.5049C78.324 15.5576 77.4598 15.084 76.3758 15.084C75.3113 15.084 74.4568 15.5576 73.8123 16.5049C73.1775 17.4424 72.8602 18.7168 72.8602 20.3281V21.8369ZM89.5143 13.1504L89.5875 14.8643C90.5934 13.5264 91.8775 12.8574 93.44 12.8574C96.2428 12.8574 97.6637 14.7275 97.7027 18.4678V29H95.1246V18.585C95.1246 17.3447 94.9146 16.4658 94.4947 15.9482C94.0846 15.4209 93.4645 15.1572 92.6344 15.1572C91.9898 15.1572 91.4088 15.3721 90.8912 15.8018C90.3834 16.2314 89.9732 16.793 89.6607 17.4863V29H87.068V13.1504H89.5143ZM108.468 29.293C106.496 29.293 104.982 28.707 103.927 27.5352C102.872 26.3535 102.335 24.625 102.316 22.3496V20.4307C102.316 18.0674 102.829 16.2168 103.854 14.8789C104.889 13.5312 106.329 12.8574 108.175 12.8574C110.031 12.8574 111.417 13.4482 112.335 14.6299C113.253 15.8115 113.722 17.6523 113.742 20.1523V21.8516H104.894V22.2178C104.894 23.917 105.211 25.1523 105.846 25.9238C106.491 26.6953 107.413 27.0811 108.615 27.0811C109.376 27.0811 110.045 26.9395 110.621 26.6562C111.207 26.3633 111.754 25.9043 112.262 25.2793L113.61 26.9199C112.487 28.502 110.773 29.293 108.468 29.293ZM108.175 15.084C107.101 15.084 106.305 15.4551 105.787 16.1973C105.27 16.9297 104.977 18.0723 104.909 19.625H111.149V19.2734C111.08 17.7695 110.807 16.6953 110.329 16.0508C109.86 15.4062 109.142 15.084 108.175 15.084ZM122.193 24.6934L125.078 13.1504H127.832L122.647 31.2412C122.256 32.5986 121.704 33.6289 120.991 34.332C120.279 35.0449 119.468 35.4014 118.56 35.4014C118.208 35.4014 117.759 35.3232 117.212 35.167V32.9697L117.783 33.0283C118.535 33.0283 119.121 32.8477 119.541 32.4863C119.971 32.1348 120.318 31.5195 120.581 30.6406L121.094 28.8682L116.436 13.1504H119.263L122.193 24.6934ZM131.933 29V7.67188H138.012C139.955 7.67188 141.415 8.14551 142.392 9.09277C143.378 10.04 143.871 11.4609 143.871 13.3555C143.871 14.3516 143.622 15.2305 143.124 15.9922C142.626 16.7539 141.952 17.3447 141.103 17.7646C142.079 18.0576 142.851 18.6582 143.417 19.5664C143.993 20.4746 144.281 21.5684 144.281 22.8477C144.281 24.7617 143.754 26.2656 142.699 27.3594C141.654 28.4531 140.16 29 138.217 29H131.933ZM134.613 19.0244V26.7002H138.275C139.291 26.7002 140.097 26.3682 140.692 25.7041C141.288 25.0303 141.586 24.0879 141.586 22.877C141.586 20.3086 140.502 19.0244 138.334 19.0244H134.613ZM134.613 16.7686H138.056C138.983 16.7686 139.73 16.4561 140.297 15.8311C140.873 15.2061 141.161 14.376 141.161 13.3408C141.161 12.1689 140.902 11.3193 140.385 10.792C139.867 10.2549 139.076 9.98633 138.012 9.98633H134.613V16.7686ZM148.601 20.3428C148.601 18.0381 149.158 16.2168 150.271 14.8789C151.394 13.5312 152.874 12.8574 154.71 12.8574C156.546 12.8574 158.02 13.5117 159.134 14.8203C160.257 16.1289 160.833 17.9111 160.862 20.167V21.8369C160.862 24.1318 160.305 25.9482 159.192 27.2861C158.079 28.624 156.595 29.293 154.739 29.293C152.903 29.293 151.429 28.6436 150.315 27.3447C149.212 26.0459 148.64 24.2881 148.601 22.0713V20.3428ZM151.194 21.8369C151.194 23.4678 151.512 24.752 152.146 25.6895C152.791 26.6172 153.655 27.0811 154.739 27.0811C157.024 27.0811 158.201 25.4307 158.269 22.1299V20.3428C158.269 18.7217 157.947 17.4424 157.303 16.5049C156.658 15.5576 155.794 15.084 154.71 15.084C153.645 15.084 152.791 15.5576 152.146 16.5049C151.512 17.4424 151.194 18.7168 151.194 20.3281V21.8369ZM164.86 20.3428C164.86 18.0381 165.417 16.2168 166.53 14.8789C167.653 13.5312 169.132 12.8574 170.968 12.8574C172.804 12.8574 174.279 13.5117 175.392 14.8203C176.515 16.1289 177.091 17.9111 177.121 20.167V21.8369C177.121 24.1318 176.564 25.9482 175.451 27.2861C174.338 28.624 172.853 29.293 170.998 29.293C169.162 29.293 167.687 28.6436 166.574 27.3447C165.47 26.0459 164.899 24.2881 164.86 22.0713V20.3428ZM167.453 21.8369C167.453 23.4678 167.77 24.752 168.405 25.6895C169.049 26.6172 169.914 27.0811 170.998 27.0811C173.283 27.0811 174.46 25.4307 174.528 22.1299V20.3428C174.528 18.7217 174.206 17.4424 173.561 16.5049C172.917 15.5576 172.052 15.084 170.968 15.084C169.904 15.084 169.049 15.5576 168.405 16.5049C167.77 17.4424 167.453 18.7168 167.453 20.3281V21.8369ZM185.645 21.749L184.268 23.3311V29H181.675V6.5H184.268V19.9619L189.204 13.1504H192.31L187.271 19.7715L192.969 29H189.952L185.645 21.749Z" fill="white"/>
</svg>
