<svg width="125" height="36" viewBox="0 0 125 36" fill="none" xmlns="http://www.w3.org/2000/svg">
<path fill-rule="evenodd" clip-rule="evenodd" d="M17.5 34.9515C19.9899 34.9515 22.3583 34.4322 24.5026 33.4962C24.5641 34.8894 25.7146 36.0001 27.125 36.0001C28.5747 36.0001 29.75 34.8265 29.75 33.3788C29.75 32.4116 29.2255 31.5668 28.445 31.1125C32.4415 27.9097 35 22.9911 35 17.4757C35 13.9812 33.9729 10.7263 32.2038 7.99558C33.3805 5.67073 33.6649 4.61493 33.4528 1.17853C30.8891 1.50383 29.6231 2.08159 27.9126 3.42872C25.0029 1.27429 21.4005 0 17.5 0C13.5301 0 9.86888 1.32009 6.9326 3.54467C5.14655 2.11442 3.88252 1.51301 1.24639 1.17853C1.0265 4.74171 1.34041 5.74539 2.62937 8.25826C0.962665 10.934 0 14.0926 0 17.4757C0 22.9911 2.55851 27.9097 6.55497 31.1125C5.77451 31.5668 5.25 32.4116 5.25 33.3788C5.25 34.8265 6.42525 36.0001 7.875 36.0001C9.28535 36.0001 10.4359 34.8894 10.4974 33.4962C12.6417 34.4322 15.0101 34.9515 17.5 34.9515ZM10.5 17.4753C11.4665 17.4753 12.25 16.6929 12.25 15.7278C12.25 14.7626 11.4665 13.9802 10.5 13.9802C9.5335 13.9802 8.75 14.7626 8.75 15.7278C8.75 16.6929 9.5335 17.4753 10.5 17.4753ZM26.2499 15.7278C26.2499 16.6929 25.4664 17.4753 24.4999 17.4753C23.5334 17.4753 22.7499 16.6929 22.7499 15.7278C22.7499 14.7626 23.5334 13.9802 24.4999 13.9802C25.4664 13.9802 26.2499 14.7626 26.2499 15.7278ZM17.5 31.4563C20.8827 31.4563 23.625 28.7179 23.625 25.3398C23.625 21.9618 20.8827 19.2233 17.5 19.2233C14.1173 19.2233 11.375 21.9618 11.375 25.3398C11.375 28.7179 14.1173 31.4563 17.5 31.4563ZM11.2002 7.7765C11.2002 7.34218 11.5523 6.99009 11.9866 6.99009H22.8388C23.2731 6.99009 23.6252 7.34218 23.6252 7.7765C23.6252 8.21082 23.2731 8.56291 22.8388 8.56291H11.9866C11.5523 8.56291 11.2002 8.21082 11.2002 7.7765ZM16.7122 21.9425V21.4132C16.7122 21.1233 16.9457 20.8902 17.2359 20.8902H17.5861C17.8764 20.8902 18.1099 21.1233 18.1099 21.4132V21.9488C18.5989 21.974 19.0722 22.141 19.4665 22.434C19.6432 22.5632 19.6621 22.8216 19.5044 22.9728L18.9901 23.4611C18.8702 23.5777 18.6904 23.5809 18.5484 23.4926C18.378 23.3855 18.1887 23.332 17.9868 23.332H16.7595C16.4755 23.332 16.2452 23.5903 16.2452 23.9085C16.2452 24.1669 16.403 24.3969 16.627 24.4631L18.5926 25.0522C19.4034 25.2948 19.9713 26.073 19.9713 26.9458C19.9713 28.017 19.1384 28.8834 18.1067 28.9118V29.4411C18.1067 29.731 17.8732 29.9641 17.583 29.9641H17.2328C16.9425 29.9641 16.709 29.731 16.709 29.4411V28.9055C16.22 28.8803 15.7467 28.7133 15.3524 28.4203C15.1757 28.2911 15.1567 28.0328 15.3145 27.8815L15.8288 27.3932C15.9487 27.2766 16.1285 27.2735 16.2705 27.3617C16.4408 27.4688 16.6301 27.5224 16.8321 27.5224H18.0594C18.3433 27.5224 18.5737 27.264 18.5737 26.9458C18.5737 26.6874 18.4159 26.4574 18.1919 26.3913L16.2263 25.8021C15.4155 25.5595 14.8475 24.7813 14.8475 23.9085C14.8507 22.8373 15.6805 21.9709 16.7122 21.9425Z" fill="white"/>
<path d="M46.9141 12.625L49.0625 20.8516L51.2031 12.625H54.2031V24H51.8984V20.9219L52.1094 16.1797L49.8359 24H48.2734L46 16.1797L46.2109 20.9219V24H43.9141V12.625H46.9141ZM56.4875 19.5C56.4875 18.2188 56.7896 17.2135 57.3938 16.4844C57.9979 15.7552 58.8339 15.3906 59.9016 15.3906C60.9797 15.3906 61.8208 15.7552 62.425 16.4844C63.0292 17.2135 63.3313 18.224 63.3313 19.5156V20.0547C63.3313 21.3411 63.0318 22.3464 62.4328 23.0703C61.8339 23.7943 60.9953 24.1562 59.9172 24.1562C58.8339 24.1562 57.9901 23.7943 57.3859 23.0703C56.787 22.3411 56.4875 21.3307 56.4875 20.0391V19.5ZM58.7063 20.0547C58.7063 21.5651 59.1099 22.3203 59.9172 22.3203C60.662 22.3203 61.063 21.6901 61.1203 20.4297L61.1281 19.5C61.1281 18.7292 61.0214 18.1589 60.8078 17.7891C60.5943 17.4141 60.2922 17.2266 59.9016 17.2266C59.5266 17.2266 59.2323 17.4141 59.0188 17.7891C58.8104 18.1589 58.7063 18.7292 58.7063 19.5V20.0547ZM67.5375 15.5469L67.6 16.3828C68.1 15.7214 68.7536 15.3906 69.5609 15.3906C71.0141 15.3906 71.7615 16.4089 71.8031 18.4453V24H69.5844V18.6094C69.5844 18.1302 69.5115 17.7839 69.3656 17.5703C69.225 17.3516 68.975 17.2422 68.6156 17.2422C68.2146 17.2422 67.9021 17.4479 67.6781 17.8594V24H65.4594V15.5469H67.5375ZM77.6031 24.1562C76.4677 24.1562 75.5823 23.8177 74.9469 23.1406C74.3115 22.4635 73.9937 21.4948 73.9937 20.2344V19.5625C73.9937 18.2292 74.2854 17.2005 74.8687 16.4766C75.4521 15.7526 76.288 15.3906 77.3766 15.3906C78.4391 15.3906 79.2385 15.7318 79.775 16.4141C80.3115 17.0911 80.5849 18.0964 80.5953 19.4297V20.5156H76.1969C76.2281 21.1406 76.3661 21.599 76.6109 21.8906C76.8557 22.1771 77.2333 22.3203 77.7437 22.3203C78.4833 22.3203 79.1005 22.0677 79.5953 21.5625L80.4625 22.8984C80.1917 23.2734 79.7984 23.5781 79.2828 23.8125C78.7672 24.0417 78.2073 24.1562 77.6031 24.1562ZM76.2125 18.9688H78.4234V18.7656C78.413 18.2604 78.3297 17.8776 78.1734 17.6172C78.0172 17.3568 77.7464 17.2266 77.3609 17.2266C76.9755 17.2266 76.6943 17.3646 76.5172 17.6406C76.3453 17.9167 76.2437 18.3594 76.2125 18.9688ZM85.2469 20.3203L86.3719 15.5469H88.7313L85.95 25.2656C85.5333 26.6979 84.7495 27.4141 83.5984 27.4141C83.3328 27.4141 83.0307 27.3646 82.6922 27.2656V25.5391L82.95 25.5469C83.2938 25.5469 83.5516 25.4792 83.7234 25.3438C83.9005 25.2135 84.0333 24.9844 84.1219 24.6562L84.2938 24.0859L81.8563 15.5469H84.2313L85.2469 20.3203ZM90.5859 24V12.625H94.1016C95.2891 12.625 96.1901 12.8906 96.8047 13.4219C97.4245 13.9479 97.7344 14.7214 97.7344 15.7422C97.7344 16.3203 97.6068 16.8177 97.3516 17.2344C97.0964 17.651 96.7474 17.9557 96.3047 18.1484C96.8151 18.2943 97.2083 18.5885 97.4844 19.0312C97.7604 19.4688 97.8984 20.0104 97.8984 20.6562C97.8984 21.7604 97.5938 22.5938 96.9844 23.1562C96.3802 23.7188 95.5026 24 94.3516 24H90.5859ZM92.8828 19.0547V22.0938H94.3516C94.763 22.0938 95.0755 21.9661 95.2891 21.7109C95.5026 21.4557 95.6094 21.0938 95.6094 20.625C95.6094 19.6042 95.2396 19.0807 94.5 19.0547H92.8828ZM92.8828 17.3828H94.0781C94.9792 17.3828 95.4297 16.9167 95.4297 15.9844C95.4297 15.4688 95.3255 15.099 95.1172 14.875C94.9089 14.651 94.5703 14.5391 94.1016 14.5391H92.8828V17.3828ZM100.003 19.5C100.003 18.2188 100.305 17.2135 100.909 16.4844C101.514 15.7552 102.349 15.3906 103.417 15.3906C104.495 15.3906 105.336 15.7552 105.941 16.4844C106.545 17.2135 106.847 18.224 106.847 19.5156V20.0547C106.847 21.3411 106.547 22.3464 105.948 23.0703C105.349 23.7943 104.511 24.1562 103.433 24.1562C102.349 24.1562 101.506 23.7943 100.902 23.0703C100.303 22.3411 100.003 21.3307 100.003 20.0391V19.5ZM102.222 20.0547C102.222 21.5651 102.626 22.3203 103.433 22.3203C104.178 22.3203 104.579 21.6901 104.636 20.4297L104.644 19.5C104.644 18.7292 104.537 18.1589 104.323 17.7891C104.11 17.4141 103.808 17.2266 103.417 17.2266C103.042 17.2266 102.748 17.4141 102.534 17.7891C102.326 18.1589 102.222 18.7292 102.222 19.5V20.0547ZM108.772 19.5C108.772 18.2188 109.074 17.2135 109.678 16.4844C110.282 15.7552 111.118 15.3906 112.186 15.3906C113.264 15.3906 114.105 15.7552 114.709 16.4844C115.314 17.2135 115.616 18.224 115.616 19.5156V20.0547C115.616 21.3411 115.316 22.3464 114.717 23.0703C114.118 23.7943 113.28 24.1562 112.202 24.1562C111.118 24.1562 110.274 23.7943 109.67 23.0703C109.071 22.3411 108.772 21.3307 108.772 20.0391V19.5ZM110.991 20.0547C110.991 21.5651 111.394 22.3203 112.202 22.3203C112.946 22.3203 113.347 21.6901 113.405 20.4297L113.412 19.5C113.412 18.7292 113.306 18.1589 113.092 17.7891C112.879 17.4141 112.577 17.2266 112.186 17.2266C111.811 17.2266 111.517 17.4141 111.303 17.7891C111.095 18.1589 110.991 18.7292 110.991 19.5V20.0547ZM120.603 20.7422L120.009 21.4062V24H117.798V12H120.009V18.4844L120.283 18.0781L121.814 15.5469H124.447L121.994 19.0312L124.681 24H122.15L120.603 20.7422Z" fill="white"/>
</svg>
